<svg xmlns="http://www.w3.org/2000/svg" width="512" height="512" xml:space="preserve"><path d="M135 310a110 110 0 1 1 71 26 110 110 0 0 1-71-26" fill="#f9ae00" data-original="#f9ae00"/><g fill="#fdd83b"><path d="M206 77a10 10 0 0 1-10-10V30a10 10 0 0 1 20 0v37a10 10 0 0 1-10 10zM127 99a10 10 0 0 1-9-5L99 61a10 10 0 0 1 18-10l18 33a10 10 0 0 1-8 15zM69 157a10 10 0 0 1-5-2l-33-19a10 10 0 1 1 10-17l33 19a10 10 0 0 1-5 19zM48 236H10a10 10 0 0 1 0-20h38a10 10 0 0 1 0 20zM36 333a10 10 0 0 1-5-18l33-19a10 10 0 1 1 10 17l-33 19a10 10 0 0 1-5 1zM343 157a10 10 0 0 1-5-19l32-19a10 10 0 1 1 10 17l-32 19a10 10 0 0 1-5 2zM285 99a10 10 0 0 1-9-15l19-33a10 10 0 0 1 17 10l-19 33a10 10 0 0 1-8 5z" data-original="#fdd83b"/></g><path d="M439 339a86 86 0 0 0-158-65 66 66 0 0 0-96 39 86 86 0 1 0-22 169h267a72 72 0 0 0 9-143z" fill="#d2e2eb" data-original="#80cdf6"/></svg> 