<svg xmlns="http://www.w3.org/2000/svg" width="512" height="512">
<style>
path {
  animation: up-down 5s infinite ease;
}

@keyframes up-down {
  0% {
    transform: translateY(0px);
  }
  50% {
    transform: translateY(40px);
  }
  100% {
    transform: translateY(0px);
  }
}
</style>
<path id="n1" d="M197 210h6a55 55 0 0171-39 92 92 0 01179 40c33 5 59 35 59 70 0 39-32 71-71 71H197c-39 0-71-32-71-71s32-71 71-71z" fill="#b5c0d6" data-original="#b5c0d6"/>
<path id="n2" d="M315 261h-6a55 55 0 00-71-39 92 92 0 00-179 40c-33 6-59 35-59 70 0 39 32 71 71 71h244c39 0 71-32 71-71s-32-71-71-71z" fill="#dfe6f4" data-original="#dfe6f4"/>
</svg>