<svg xmlns="http://www.w3.org/2000/svg" width="512" height="512" xml:space="preserve"><path d="M436 131a140 140 0 0 0-271-40 95 95 0 0 0 1 189h267a74 74 0 0 0 3-149zm0 0" fill="#6d6d6d" data-original="#6d6d6d"/><path d="M507 206c0 41-33 74-74 74h-6a74 74 0 0 0-63-109A140 140 0 0 0 195 43a140 140 0 0 1 241 88c40 2 71 34 71 75zm0 0" fill="#565656" data-original="#565656"/><path d="M399 123c-4 0-7-2-8-6l-5-16a8 8 0 1 1 14-6l6 18a8 8 0 0 1-7 10zM372 75c-2 0-4-1-5-3a97 97 0 0 0-71-30 8 8 0 0 1 0-15c31 0 60 12 82 35a8 8 0 0 1-6 13zm0 0" fill="#6d6d6d" data-original="#6d6d6d"/><path d="M51 174a100 100 0 0 1 194-29 68 68 0 0 1-1 135H53a53 53 0 0 1-2-106zm0 0" fill="#a09d9c" data-original="#a09d9c"/><path d="M312 212c0 37-30 67-67 68a68 68 0 0 0-49-113 100 100 0 0 0-109-64 100 100 0 0 1 157 42c38 0 68 30 68 67zm0 0" fill="#82807f" data-original="#82807f"/><path d="M108 351a21 21 0 1 1-42 0c0-8 9-23 15-32 3-5 9-5 12 0 6 9 15 24 15 32zm0 0" fill="#a0ecff" data-original="#a0ecff"/><path d="M108 351a21 21 0 0 1-29 19c7-3 13-11 13-19 0-7-7-19-13-29l2-3c3-5 9-5 12 0 6 9 15 24 15 32zm0 0" fill="#60daff" data-original="#60daff"/><path d="M203 351a21 21 0 1 1-42 0c0-8 9-23 16-32 2-5 8-5 11 0 6 9 15 24 15 32zm0 0" fill="#a0ecff" data-original="#a0ecff"/><path d="M203 351a21 21 0 0 1-29 19c8-3 13-11 13-19 0-7-7-19-13-29l3-3c2-5 8-5 11 0 6 9 15 24 15 32zm0 0" fill="#60daff" data-original="#60daff"/><path d="M299 351a21 21 0 1 1-43 0c0-8 10-23 16-32 3-5 9-5 11 0 7 9 16 24 16 32zm0 0" fill="#a0ecff" data-original="#a0ecff"/><path d="M299 351a21 21 0 0 1-30 19c8-3 13-11 13-19 0-7-7-19-13-29l3-3c2-5 9-5 11 0 7 9 16 24 16 32zm0 0" fill="#60daff" data-original="#60daff"/><path d="M394 351a21 21 0 1 1-42 0c0-8 9-23 15-32 3-5 9-5 12 0 6 9 15 24 15 32zm0 0" fill="#a0ecff" data-original="#a0ecff"/><path d="M394 351a21 21 0 0 1-29 19c7-3 12-11 12-19 0-7-7-19-12-29l2-3c3-5 9-5 12 0 6 9 15 24 15 32zm0 0" fill="#60daff" data-original="#60daff"/><path d="M108 491a21 21 0 1 1-42 0c0-8 9-23 15-32 3-4 9-4 12 0 6 9 15 24 15 32zm0 0" fill="#a0ecff" data-original="#a0ecff"/><path d="M108 491a21 21 0 0 1-29 19c7-3 13-10 13-19 0-7-7-19-13-28l2-4c3-4 9-4 12 0 6 9 15 24 15 32zm0 0" fill="#60daff" data-original="#60daff"/><path d="M203 491a21 21 0 1 1-42 0c0-8 9-23 16-32 2-4 8-4 11 0 6 9 15 24 15 32zm0 0" fill="#a0ecff" data-original="#a0ecff"/><path d="M203 491a21 21 0 0 1-29 19c8-3 13-10 13-19 0-7-7-19-13-28l3-4c2-4 8-4 11 0 6 9 15 24 15 32zm0 0" fill="#60daff" data-original="#60daff"/><path d="M299 491a21 21 0 1 1-43 0c0-8 10-23 16-32 3-4 9-4 11 0 7 9 16 24 16 32zm0 0" fill="#a0ecff" data-original="#a0ecff"/><path d="M299 491a21 21 0 0 1-30 19c8-3 13-10 13-19 0-7-7-19-13-28l3-4c2-4 9-4 11 0 7 9 16 24 16 32zm0 0" fill="#60daff" data-original="#60daff"/><path d="M394 491a21 21 0 1 1-42 0c0-8 9-23 15-32 3-4 9-4 12 0 6 9 15 24 15 32zm0 0" fill="#a0ecff" data-original="#a0ecff"/><path d="M394 491a21 21 0 0 1-29 19c7-3 12-10 12-19 0-7-7-19-12-28l2-4c3-4 9-4 12 0 6 9 15 24 15 32zm0 0" fill="#60daff" data-original="#60daff"/><path d="M156 420a21 21 0 1 1-42 0c0-8 9-23 15-32 3-4 9-4 11 0 7 9 16 24 16 32zm0 0" fill="#a0ecff" data-original="#a0ecff"/><path d="M156 420a21 21 0 0 1-30 19c8-3 13-10 13-19 0-7-7-19-13-28l3-4c3-4 9-4 11 0 7 9 16 24 16 32zm0 0" fill="#60daff" data-original="#60daff"/><path d="M251 420a21 21 0 1 1-42 0c0-8 9-23 15-32 3-4 9-4 12 0 6 9 15 24 15 32zm0 0" fill="#a0ecff" data-original="#a0ecff"/><path d="M251 420a21 21 0 0 1-29 19c7-3 13-10 13-19 0-7-7-19-13-28l2-4c3-4 9-4 12 0 6 9 15 24 15 32zm0 0" fill="#60daff" data-original="#60daff"/><path d="M346 420a21 21 0 1 1-42 0c0-8 9-23 15-32 3-4 9-4 12 0 6 9 15 24 15 32zm0 0" fill="#a0ecff" data-original="#a0ecff"/><path d="M346 420a21 21 0 0 1-29 19c7-3 13-10 13-19 0-7-7-19-13-28l2-4c3-4 9-4 12 0 6 9 15 24 15 32zm0 0" fill="#60daff" data-original="#60daff"/><path d="M441 420a21 21 0 1 1-42 0c0-8 9-23 16-32 2-4 8-4 11 0 6 9 15 24 15 32zm0 0" fill="#a0ecff" data-original="#a0ecff"/><path d="M441 420a21 21 0 0 1-29 19c8-3 13-10 13-19 0-7-7-19-13-28l3-4c2-4 8-4 11 0 6 9 15 24 15 32zm0 0" fill="#60daff" data-original="#60daff"/></svg>