<svg xmlns="http://www.w3.org/2000/svg" width="512" height="512" xml:space="preserve">
<style>
path {
  animation: rotate 5s infinite linear;
  transform-origin: center;
}
@keyframes rotate {
  0% {
    transform: rotateZ(0deg) scale(.9);
  }
  50% {
    transform: rotateZ(180deg) scale(1);
  }
  100% {
    transform: rotateZ(360deg) scale(.9);
  }
}
</style>
<path d="M512 256c0-7-6-13-13-13h-22l21-21a13 13 0 1 0-19-19l-40 40h-19l20-21a13 13 0 1 0-19-19l-39 40h-94l66-66h56a13 13 0 1 0 0-27h-29l14-14h56a13 13 0 1 0 0-27h-29l15-15a13 13 0 1 0-19-19l-15 15V61a13 13 0 1 0-27 0v56l-14 14v-29a13 13 0 1 0-27 0v56l-66 66v-94l40-39a13 13 0 1 0-19-19l-21 20V73l40-40a13 13 0 1 0-19-19l-21 21V13a13 13 0 0 0-26 0v22l-21-21a13 13 0 1 0-19 19l40 40v19l-21-20a13 13 0 1 0-19 19l40 39v94l-66-66v-56a13 13 0 1 0-27 0v29l-14-14V61a13 13 0 1 0-27 0v29L94 75a13 13 0 1 0-19 19l15 15H61a13 13 0 1 0 0 27h56l14 14h-29a13 13 0 1 0 0 27h56l66 66h-94l-39-40a13 13 0 1 0-19 19l20 21H73l-40-40a13 13 0 1 0-19 19l21 21H13a13 13 0 0 0 0 26h22l-21 21a13 13 0 1 0 19 19l40-40h19l-20 21a13 13 0 1 0 19 19l39-40h94l-66 66h-56a13 13 0 1 0 0 27h29l-14 14H61a13 13 0 1 0 0 27h29l-15 15a13 13 0 1 0 19 19l15-15v29a13 13 0 1 0 27 0v-56l14-14v29a13 13 0 1 0 27 0v-56l66-66v94l-40 39a13 13 0 1 0 19 19l21-20v19l-40 40a13 13 0 1 0 19 19l21-21v22a13 13 0 0 0 26 0v-22l21 21a13 13 0 1 0 19-19l-40-40v-19l21 20c2 2 6 4 9 4s7-2 10-4c5-6 5-14 0-19l-40-39v-94l66 66v56a13 13 0 1 0 27 0v-29l14 14v56a13 13 0 1 0 27 0v-29l15 15a13 13 0 0 0 19 0c5-5 5-14 0-19l-15-15h29a13 13 0 1 0 0-27h-56l-14-14h29a13 13 0 1 0 0-27h-56l-66-66h94l39 40c2 2 6 3 9 3s7-1 10-3c5-6 5-14 0-19l-20-21h19l40 40a13 13 0 0 0 19 0c5-6 5-14 0-19l-21-21h22c7 0 13-6 13-13z" fill="#49a9eb" data-original="#49a9eb"/>
</svg>