<svg xmlns="http://www.w3.org/2000/svg" width="512" height="512" viewBox="0 0 512 511" xml:space="preserve"><g fill="#a0ecff"><path d="M8 375a8 8 0 0 1-6-13l134-134a8 8 0 0 1 11 10L13 373l-5 2zM24 325a8 8 0 0 1-5-13l17-17a8 8 0 0 1 11 11l-18 17-5 2zM58 402a8 8 0 0 1-6-13l17-17a8 8 0 0 1 11 11l-17 17-5 2zM352 375a8 8 0 0 1-5-13l134-134a8 8 0 0 1 11 10L357 373l-5 2zm0 0" data-original="#a0ecff"/></g><path d="M256 331 93 440c-4 3-9 1-12-2s-3-8 1-12l80-80h-53a9 9 0 0 1-7-16l86-85h76l-70 70h56c9 0 13 11 6 16zm0 0" fill="#f6cb43" data-original="#f6cb43"/><path d="M256 331 93 440c-4 3-9 1-12-2l134-107h-53a9 9 0 0 1-6-16l70-70h38l-70 70h56c9 0 13 11 6 16zm0 0" fill="#fab03c" data-original="#fab03c"/><path d="M308 359a8 8 0 0 1-6-13l60-60a8 8 0 0 1 11 11l-60 59c-1 2-3 3-5 3zM263 403a8 8 0 0 1-5-13l19-19a8 8 0 1 1 11 11l-19 19-6 2zM284 308a8 8 0 0 1-5-13l59-59a8 8 0 0 1 10 11l-58 59-6 2zm0 0" fill="#a0ecff" data-original="#a0ecff"/><path d="M445 124a131 131 0 0 0-254-38 89 89 0 0 0 1 177h250a70 70 0 0 0 3-139zm0 0" fill="#6d6d6d" data-original="#6d6d6d"/><path d="M512 193c0 39-31 70-70 70h-5a70 70 0 0 0-59-102A131 131 0 0 0 219 41a131 131 0 0 1 226 83c37 1 67 32 67 69zm0 0" fill="#565656" data-original="#565656"/><path d="M410 116c-3 0-6-2-7-6l-5-15a8 8 0 1 1 14-6l5 18a8 8 0 0 1-7 9zM385 71c-2 0-4-1-5-3a91 91 0 0 0-66-28 8 8 0 0 1 0-15c29 0 56 12 77 33a8 8 0 0 1-6 13zm0 0" fill="#6d6d6d" data-original="#6d6d6d"/><path d="M84 163a94 94 0 0 1 182-27 63 63 0 0 1-1 127H86a50 50 0 0 1-2-100zm0 0" fill="#a09d9c" data-original="#a09d9c"/><path d="M328 200c0 34-27 62-62 63a63 63 0 0 0-46-106 94 94 0 0 0-102-60 93 93 0 0 1 148 39c34 1 62 29 62 64zm0 0" fill="#82807f" data-original="#82807f"/><path d="M328 403a8 8 0 0 1 0-15 8 8 0 0 1 0 15zM419 352a8 8 0 0 1 0-16 8 8 0 0 1 0 16zM39 421a8 8 0 0 1 0-15 8 8 0 1 1 0 15zm0 0" fill="#a0ecff" data-original="#a0ecff"/></svg>